{
  "accessors": [
    {
      "bufferView": 2,
      "componentType": 5126,
      "count": 36,
      "max": [
        1.497871994972229,
        -0.45144200325012207,
        1.107504963874817
      ],
      "min": [
        -1.756140947341919,
        -0.45144200325012207,
        -1.0998719930648804
      ],
      "type": "VEC3"
    },
    {
      "bufferView": 2,
      "byteOffset": 432,
      "componentType": 5126,
      "count": 36,
      "max": [
        0.0,
        1.0,
        0.0
      ],
      "min": [
        0.0,
        1.0,
        0.0
      ],
      "type": "VEC3"
    },
    {
      "bufferView": 3,
      "componentType": 5126,
      "count": 36,
      "max": [
        0.9350395202636719,
        0.0,
        0.39539721608161926,
        1.0
      ],
      "min": [
        0.9185101985931396,
        0.0,
        0.354543536901474,
        1.0
      ],
      "type": "VEC4"
    },
    {
      "bufferView": 1,
      "componentType": 5126,
      "count": 36,
      "max": [
        0.9980469942092896,
        0.845878005027771
      ],
      "min": [
        0.0019529999699443579,
        0.0019529999699443579
      ],
      "type": "VEC2"
    },
    {
      "bufferView": 0,
      "componentType": 5125,
      "count": 150,
      "type": "SCALAR"
    },
    {
      "bufferView": 2,
      "byteOffset": 864,
      "componentType": 5126,
      "count": 4221,
      "max": [
        0.4046509861946106,
        -0.2732110023498535,
        0.6903690099716187
      ],
      "min": [
        -0.4758070111274719,
        -0.4638049900531769,
        -0.10471700131893158
      ],
      "type": "VEC3"
    },
    {
      "bufferView": 2,
      "byteOffset": 51516,
      "componentType": 5126,
      "count": 4221,
      "max": [
        0.9957152605056763,
        0.9999040961265564,
        0.9966692328453064
      ],
      "min": [
        -0.9991393685340881,
        -0.9995136260986328,
        -0.9992462396621704
      ],
      "type": "VEC3"
    },
    {
      "bufferView": 3,
      "byteOffset": 576,
      "componentType": 5126,
      "count": 4221,
      "max": [
        0.9997944831848145,
        0.9999763369560242,
        0.9988150000572205,
        1.0
      ],
      "min": [
        -0.9998213648796082,
        -0.9996827244758606,
        -0.9998608827590942,
        1.0
      ],
      "type": "VEC4"
    },
    {
      "bufferView": 1,
      "byteOffset": 288,
      "componentType": 5126,
      "count": 4221,
      "max": [
        0.9925190210342407,
        0.9980469942092896
      ],
      "min": [
        0.0019529999699443579,
        0.0019529999699443579
      ],
      "type": "VEC2"
    },
    {
      "bufferView": 0,
      "byteOffset": 600,
      "componentType": 5125,
      "count": 23862,
      "type": "SCALAR"
    },
    {
      "bufferView": 2,
      "byteOffset": 102168,
      "componentType": 5126,
      "count": 8435,
      "max": [
        -0.22904899716377258,
        0.07271800190210342,
        0.49149900674819946
      ],
      "min": [
        -1.2168630361557007,
        -0.4513390064239502,
        -0.49427899718284607
      ],
      "type": "VEC3"
    },
    {
      "bufferView": 2,
      "byteOffset": 203388,
      "componentType": 5126,
      "count": 8435,
      "max": [
        0.9999849796295166,
        1.0,
        0.9999247789382935
      ],
      "min": [
        -0.9999703764915466,
        -0.9999961256980896,
        -0.9999447464942932
      ],
      "type": "VEC3"
    },
    {
      "bufferView": 3,
      "byteOffset": 68112,
      "componentType": 5126,
      "count": 8435,
      "max": [
        0.9985857605934143,
        0.9998032450675964,
        0.9958619475364685,
        1.0
      ],
      "min": [
        -0.9999995231628418,
        -0.9998148083686829,
        -0.9937911033630371,
        1.0
      ],
      "type": "VEC4"
    },
    {
      "bufferView": 1,
      "byteOffset": 34056,
      "componentType": 5126,
      "count": 8435,
      "max": [
        0.9948769807815552,
        0.9980469942092896
      ],
      "min": [
        0.0019529999699443579,
        0.0019529999699443579
      ],
      "type": "VEC2"
    },
    {
      "bufferView": 0,
      "byteOffset": 96048,
      "componentType": 5125,
      "count": 49914,
      "type": "SCALAR"
    },
    {
      "bufferView": 2,
      "byteOffset": 304608,
      "componentType": 5126,
      "count": 2217,
      "max": [
        0.5412619709968567,
        -0.39612001180648804,
        -0.026381999254226685
      ],
      "min": [
        0.2537040114402771,
        -0.4519610106945038,
        -0.313946008682251
      ],
      "type": "VEC3"
    },
    {
      "bufferView": 2,
      "byteOffset": 331212,
      "componentType": 5126,
      "count": 2217,
      "max": [
        0.9999940991401672,
        0.9999997615814209,
        0.999997615814209
      ],
      "min": [
        -0.9999983310699463,
        -0.9999997615814209,
        -0.9999991059303284
      ],
      "type": "VEC3"
    },
    {
      "bufferView": 3,
      "byteOffset": 203072,
      "componentType": 5126,
      "count": 2217,
      "max": [
        0.9999918937683105,
        0.6688314080238342,
        0.9999723434448242,
        1.0
      ],
      "min": [
        -0.9269140958786011,
        -0.36346766352653503,
        -0.565820038318634,
        1.0
      ],
      "type": "VEC4"
    },
    {
      "bufferView": 1,
      "byteOffset": 101536,
      "componentType": 5126,
      "count": 2217,
      "max": [
        0.996537983417511,
        0.9980469942092896
      ],
      "min": [
        0.0019529999699443579,
        0.0019529999699443579
      ],
      "type": "VEC2"
    },
    {
      "bufferView": 0,
      "byteOffset": 295704,
      "componentType": 5125,
      "count": 12288,
      "type": "SCALAR"
    },
    {
      "bufferView": 2,
      "byteOffset": 357816,
      "componentType": 5126,
      "count": 9784,
      "max": [
        0.8419100046157837,
        0.07907500118017197,
        0.2741920053958893
      ],
      "min": [
        -0.04687900096178055,
        -0.403082013130188,
        -0.6145690083503723
      ],
      "type": "VEC3"
    },
    {
      "bufferView": 2,
      "byteOffset": 475224,
      "componentType": 5126,
      "count": 9784,
      "max": [
        0.9998623728752136,
        1.0,
        0.9998288750648499
      ],
      "min": [
        -0.9999421238899231,
        -1.0,
        -0.9999103546142578
      ],
      "type": "VEC3"
    },
    {
      "bufferView": 3,
      "byteOffset": 238544,
      "componentType": 5126,
      "count": 9784,
      "max": [
        1.0,
        0.9985620975494385,
        0.9999800324440002,
        1.0
      ],
      "min": [
        -0.9995676875114441,
        -0.9722694754600525,
        -0.9999974370002747,
        1.0
      ],
      "type": "VEC4"
    },
    {
      "bufferView": 1,
      "byteOffset": 119272,
      "componentType": 5126,
      "count": 9784,
      "max": [
        0.9980469942092896,
        0.9675300121307373
      ],
      "min": [
        0.0019529999699443579,
        0.0019529999699443579
      ],
      "type": "VEC2"
    },
    {
      "bufferView": 0,
      "byteOffset": 344856,
      "componentType": 5125,
      "count": 58302,
      "type": "SCALAR"
    }
  ],
  "asset": {
    "extras": {
      "author": "Andy Woodhead (https://sketchfab.com/Andywoodhead)",
      "license": "CC-BY-NC-SA-4.0 (http://creativecommons.org/licenses/by-nc-sa/4.0/)",
      "source": "https://sketchfab.com/3d-models/roman-pottery-samian-ware-and-mould-0d3df5c869124a30a895b40b8154e591",
      "title": "Roman pottery (Samian ware) and mould"
    },
    "generator": "Sketchfab-13.79.0",
    "version": "2.0"
  },
  "bufferViews": [
    {
      "buffer": 0,
      "byteLength": 578064,
      "name": "floatBufferViews",
      "target": 34963
    },
    {
      "buffer": 0,
      "byteLength": 197544,
      "byteOffset": 578064,
      "byteStride": 8,
      "name": "floatBufferViews",
      "target": 34962
    },
    {
      "buffer": 0,
      "byteLength": 592632,
      "byteOffset": 775608,
      "byteStride": 12,
      "name": "floatBufferViews",
      "target": 34962
    },
    {
      "buffer": 0,
      "byteLength": 395088,
      "byteOffset": 1368240,
      "byteStride": 16,
      "name": "floatBufferViews",
      "target": 34962
    }
  ],
  "buffers": [
    {
      "byteLength": 1763328,
      "uri": "scene.bin"
    }
  ],
  "images": [
    {
      "uri": "textures/Samian_519_decorated_uv_hi_res_baseColor.jpeg"
    },
    {
      "uri": "textures/Samian_519_decorated_uv_hi_res_metallicRoughness.png"
    },
    {
      "uri": "textures/Samian_519_decorated_uv_hi_res_normal.png"
    },
    {
      "uri": "textures/Base_baseColor.jpeg"
    },
    {
      "uri": "textures/Base_metallicRoughness.png"
    },
    {
      "uri": "textures/Base_normal.png"
    },
    {
      "uri": "textures/Mould_baseColor.jpeg"
    },
    {
      "uri": "textures/Mould_metallicRoughness.png"
    },
    {
      "uri": "textures/Mould_normal.png"
    },
    {
      "uri": "textures/Punches_1_baseColor.jpeg"
    },
    {
      "uri": "textures/Punches_1_metallicRoughness.png"
    },
    {
      "uri": "textures/Punches_1_normal.png"
    },
    {
      "uri": "textures/Floor_baseColor.png"
    },
    {
      "uri": "textures/Floor_metallicRoughness.png"
    },
    {
      "uri": "textures/Floor_normal.png"
    }
  ],
  "materials": [
    {
      "doubleSided": true,
      "name": "Samian_519_decorated_uv_hi_res",
      "normalTexture": {
        "index": 2
      },
      "occlusionTexture": {
        "index": 1
      },
      "pbrMetallicRoughness": {
        "baseColorTexture": {
          "index": 0
        },
        "metallicRoughnessTexture": {
          "index": 1
        }
      }
    },
    {
      "doubleSided": true,
      "name": "Base",
      "normalTexture": {
        "index": 5
      },
      "occlusionTexture": {
        "index": 4
      },
      "pbrMetallicRoughness": {
        "baseColorTexture": {
          "index": 3
        },
        "metallicRoughnessTexture": {
          "index": 4
        }
      }
    },
    {
      "doubleSided": true,
      "name": "Mould",
      "normalTexture": {
        "index": 8
      },
      "occlusionTexture": {
        "index": 7
      },
      "pbrMetallicRoughness": {
        "baseColorTexture": {
          "index": 6
        },
        "metallicRoughnessTexture": {
          "index": 7
        }
      }
    },
    {
      "doubleSided": true,
      "name": "Punches_1",
      "normalTexture": {
        "index": 11
      },
      "occlusionTexture": {
        "index": 10
      },
      "pbrMetallicRoughness": {
        "baseColorTexture": {
          "index": 9
        },
        "metallicRoughnessTexture": {
          "index": 10
        }
      }
    },
    {
      "alphaMode": "BLEND",
      "doubleSided": true,
      "name": "Floor",
      "normalTexture": {
        "index": 14
      },
      "occlusionTexture": {
        "index": 13
      },
      "pbrMetallicRoughness": {
        "baseColorTexture": {
          "index": 12
        },
        "metallicRoughnessTexture": {
          "index": 13
        }
      }
    }
  ],
  "meshes": [
    {
      "name": "defaultMaterial",
      "primitives": [
        {
          "attributes": {
            "NORMAL": 1,
            "POSITION": 0,
            "TANGENT": 2,
            "TEXCOORD_0": 3
          },
          "indices": 4,
          "material": 4,
          "mode": 4
        }
      ]
    },
    {
      "name": "defaultMaterial",
      "primitives": [
        {
          "attributes": {
            "NORMAL": 6,
            "POSITION": 5,
            "TANGENT": 7,
            "TEXCOORD_0": 8
          },
          "indices": 9,
          "material": 3,
          "mode": 4
        }
      ]
    },
    {
      "name": "defaultMaterial",
      "primitives": [
        {
          "attributes": {
            "NORMAL": 11,
            "POSITION": 10,
            "TANGENT": 12,
            "TEXCOORD_0": 13
          },
          "indices": 14,
          "material": 2,
          "mode": 4
        }
      ]
    },
    {
      "name": "defaultMaterial",
      "primitives": [
        {
          "attributes": {
            "NORMAL": 16,
            "POSITION": 15,
            "TANGENT": 17,
            "TEXCOORD_0": 18
          },
          "indices": 19,
          "material": 1,
          "mode": 4
        }
      ]
    },
    {
      "name": "defaultMaterial",
      "primitives": [
        {
          "attributes": {
            "NORMAL": 21,
            "POSITION": 20,
            "TANGENT": 22,
            "TEXCOORD_0": 23
          },
          "indices": 24,
          "material": 0,
          "mode": 4
        }
      ]
    }
  ],
  "nodes": [
    {
      "children": [
        1
      ],
      "matrix": [
        1.0,
        0.0,
        0.0,
        0.0,
        0.0,
        2.220446049250313e-16,
        -1.0,
        0.0,
        0.0,
        1.0,
        2.220446049250313e-16,
        0.0,
        0.0,
        0.0,
        0.0,
        1.0
      ],
      "name": "Sketchfab_model"
    },
    {
      "children": [
        2,
        4,
        6,
        8,
        10
      ],
      "matrix": [
        1.0,
        0.0,
        0.0,
        0.0,
        0.0,
        -4.371139006309477e-08,
        0.999999999999999,
        0.0,
        0.0,
        -0.999999999999999,
        -4.371139006309477e-08,
        0.0,
        0.0,
        0.0,
        0.0,
        1.0
      ],
      "name": "Collada visual scene group"
    },
    {
      "children": [
        3
      ],
      "name": "Floor"
    },
    {
      "mesh": 0,
      "name": "defaultMaterial"
    },
    {
      "children": [
        5
      ],
      "name": "Punches_1"
    },
    {
      "mesh": 1,
      "name": "defaultMaterial"
    },
    {
      "children": [
        7
      ],
      "name": "Mould"
    },
    {
      "mesh": 2,
      "name": "defaultMaterial"
    },
    {
      "children": [
        9
      ],
      "name": "Base"
    },
    {
      "mesh": 3,
      "name": "defaultMaterial"
    },
    {
      "children": [
        11
      ],
      "name": "Samian"
    },
    {
      "mesh": 4,
      "name": "defaultMaterial"
    }
  ],
  "samplers": [
    {
      "magFilter": 9729,
      "minFilter": 9987,
      "wrapS": 10497,
      "wrapT": 10497
    }
  ],
  "scene": 0,
  "scenes": [
    {
      "name": "Sketchfab_Scene",
      "nodes": [
        0
      ]
    }
  ],
  "textures": [
    {
      "sampler": 0,
      "source": 0
    },
    {
      "sampler": 0,
      "source": 1
    },
    {
      "sampler": 0,
      "source": 2
    },
    {
      "sampler": 0,
      "source": 3
    },
    {
      "sampler": 0,
      "source": 4
    },
    {
      "sampler": 0,
      "source": 5
    },
    {
      "sampler": 0,
      "source": 6
    },
    {
      "sampler": 0,
      "source": 7
    },
    {
      "sampler": 0,
      "source": 8
    },
    {
      "sampler": 0,
      "source": 9
    },
    {
      "sampler": 0,
      "source": 10
    },
    {
      "sampler": 0,
      "source": 11
    },
    {
      "sampler": 0,
      "source": 12
    },
    {
      "sampler": 0,
      "source": 13
    },
    {
      "sampler": 0,
      "source": 14
    }
  ]
}
