{
  "accessors": [
    {
      "bufferView": 2,
      "componentType": 5126,
      "count": 65532,
      "max": [
        0.9226430058479309,
        0.993012011051178,
        0.9042930006980896
      ],
      "min": [
        -0.9129830002784729,
        -1.1422150135040283,
        -0.9161059856414795
      ],
      "type": "VEC3"
    },
    {
      "bufferView": 2,
      "byteOffset": 786384,
      "componentType": 5126,
      "count": 65532,
      "max": [
        0.9999389052391052,
        1.0,
        0.9998996257781982
      ],
      "min": [
        -0.9999907612800598,
        -0.9999998807907104,
        -0.9999786615371704
      ],
      "type": "VEC3"
    },
    {
      "bufferView": 3,
      "componentType": 5126,
      "count": 65532,
      "max": [
        0.9981362819671631,
        0.999946653842926,
        0.9999832510948181,
        1.0
      ],
      "min": [
        -0.9999874830245972,
        -0.9999751448631287,
        -0.9995530843734741,
        -1.0
      ],
      "type": "VEC4"
    },
    {
      "bufferView": 1,
      "componentType": 5126,
      "count": 65532,
      "max": [
        0.9950630068778992,
        0.7740610241889954
      ],
      "min": [
        0.0024840000551193953,
        0.0022670000325888395
      ],
      "type": "VEC2"
    },
    {
      "bufferView": 0,
      "componentType": 5125,
      "count": 65532,
      "type": "SCALAR"
    },
    {
      "bufferView": 2,
      "byteOffset": 1572768,
      "componentType": 5126,
      "count": 65532,
      "max": [
        0.9228289723396301,
        0.9930959939956665,
        0.9044719934463501
      ],
      "min": [
        -0.9123539924621582,
        -1.1422150135040283,
        -0.9151740074157715
      ],
      "type": "VEC3"
    },
    {
      "bufferView": 2,
      "byteOffset": 2359152,
      "componentType": 5126,
      "count": 65532,
      "max": [
        0.9999698996543884,
        1.0,
        0.9998836517333984
      ],
      "min": [
        -0.9999188780784607,
        -1.0,
        -0.9998417496681213
      ],
      "type": "VEC3"
    },
    {
      "bufferView": 3,
      "byteOffset": 1048512,
      "componentType": 5126,
      "count": 65532,
      "max": [
        0.9992218017578125,
        0.999976396560669,
        0.9991254210472107,
        1.0
      ],
      "min": [
        -0.9999377727508545,
        -0.9999048113822937,
        -0.9995085000991821,
        -1.0
      ],
      "type": "VEC4"
    },
    {
      "bufferView": 1,
      "byteOffset": 524256,
      "componentType": 5126,
      "count": 65532,
      "max": [
        0.9961339831352234,
        0.7737039923667908
      ],
      "min": [
        0.00203699991106987,
        0.00279000005684793
      ],
      "type": "VEC2"
    },
    {
      "bufferView": 0,
      "byteOffset": 262128,
      "componentType": 5125,
      "count": 65532,
      "type": "SCALAR"
    },
    {
      "bufferView": 2,
      "byteOffset": 3145536,
      "componentType": 5126,
      "count": 65532,
      "max": [
        0.9228289723396301,
        0.9931020140647888,
        0.9044719934463501
      ],
      "min": [
        -0.9131140112876892,
        -1.1422159671783447,
        -0.9161059856414795
      ],
      "type": "VEC3"
    },
    {
      "bufferView": 2,
      "byteOffset": 3931920,
      "componentType": 5126,
      "count": 65532,
      "max": [
        0.999887228012085,
        1.0,
        0.9999600052833557
      ],
      "min": [
        -0.9999134540557861,
        -1.0,
        -0.9998725056648254
      ],
      "type": "VEC3"
    },
    {
      "bufferView": 3,
      "byteOffset": 2097024,
      "componentType": 5126,
      "count": 65532,
      "max": [
        0.9998993873596191,
        0.9999825358390808,
        0.9991920590400696,
        1.0
      ],
      "min": [
        -0.9999778866767883,
        -0.9999102354049683,
        -1.0,
        -1.0
      ],
      "type": "VEC4"
    },
    {
      "bufferView": 1,
      "byteOffset": 1048512,
      "componentType": 5126,
      "count": 65532,
      "max": [
        0.9980130195617676,
        0.7748939990997314
      ],
      "min": [
        0.0019529999699443579,
        0.0019529999699443579
      ],
      "type": "VEC2"
    },
    {
      "bufferView": 0,
      "byteOffset": 524256,
      "componentType": 5125,
      "count": 65532,
      "type": "SCALAR"
    },
    {
      "bufferView": 2,
      "byteOffset": 4718304,
      "componentType": 5126,
      "count": 65532,
      "max": [
        0.9226430058479309,
        0.9931020140647888,
        0.9044719934463501
      ],
      "min": [
        -0.9131140112876892,
        -1.1422159671783447,
        -0.9152820110321045
      ],
      "type": "VEC3"
    },
    {
      "bufferView": 2,
      "byteOffset": 5504688,
      "componentType": 5126,
      "count": 65532,
      "max": [
        0.9999465942382813,
        1.0,
        0.9999507665634155
      ],
      "min": [
        -0.999754786491394,
        -1.0,
        -0.9999558925628662
      ],
      "type": "VEC3"
    },
    {
      "bufferView": 3,
      "byteOffset": 3145536,
      "componentType": 5126,
      "count": 65532,
      "max": [
        0.9997692108154297,
        0.9999920129776001,
        0.9993648529052734,
        1.0
      ],
      "min": [
        -0.9999871253967285,
        -0.9999824166297913,
        -0.9998863935470581,
        -1.0
      ],
      "type": "VEC4"
    },
    {
      "bufferView": 1,
      "byteOffset": 1572768,
      "componentType": 5126,
      "count": 65532,
      "max": [
        0.9977080225944519,
        0.7745370268821716
      ],
      "min": [
        0.0022899999748915434,
        0.0020389999262988567
      ],
      "type": "VEC2"
    },
    {
      "bufferView": 0,
      "byteOffset": 786384,
      "componentType": 5125,
      "count": 65532,
      "type": "SCALAR"
    },
    {
      "bufferView": 2,
      "byteOffset": 6291072,
      "componentType": 5126,
      "count": 65532,
      "max": [
        0.9227820038795471,
        0.9930959939956665,
        0.9044719934463501
      ],
      "min": [
        -0.9129830002784729,
        -1.1422159671783447,
        -0.9161059856414795
      ],
      "type": "VEC3"
    },
    {
      "bufferView": 2,
      "byteOffset": 7077456,
      "componentType": 5126,
      "count": 65532,
      "max": [
        0.9999980926513672,
        1.0,
        0.9999854564666748
      ],
      "min": [
        -0.9998639822006226,
        -1.0,
        -0.99966961145401
      ],
      "type": "VEC3"
    },
    {
      "bufferView": 3,
      "byteOffset": 4194048,
      "componentType": 5126,
      "count": 65532,
      "max": [
        0.9991206526756287,
        0.9999624490737915,
        0.9996592402458191,
        1.0
      ],
      "min": [
        -0.9999787211418152,
        -0.9999792575836182,
        -0.9998590350151062,
        -1.0
      ],
      "type": "VEC4"
    },
    {
      "bufferView": 1,
      "byteOffset": 2097024,
      "componentType": 5126,
      "count": 65532,
      "max": [
        0.996291995048523,
        0.7745370268821716
      ],
      "min": [
        0.0025430000387132168,
        0.0020099999383091927
      ],
      "type": "VEC2"
    },
    {
      "bufferView": 0,
      "byteOffset": 1048512,
      "componentType": 5125,
      "count": 65532,
      "type": "SCALAR"
    },
    {
      "bufferView": 2,
      "byteOffset": 7863840,
      "componentType": 5126,
      "count": 65532,
      "max": [
        0.9228289723396301,
        0.9931020140647888,
        0.9044719934463501
      ],
      "min": [
        -0.9131140112876892,
        -1.1422100067138672,
        -0.9153710007667542
      ],
      "type": "VEC3"
    },
    {
      "bufferView": 2,
      "byteOffset": 8650224,
      "componentType": 5126,
      "count": 65532,
      "max": [
        0.9999960064888,
        0.9999992251396179,
        0.9998669028282166
      ],
      "min": [
        -0.9999472498893738,
        -1.0,
        -0.9997962117195129
      ],
      "type": "VEC3"
    },
    {
      "bufferView": 3,
      "byteOffset": 5242560,
      "componentType": 5126,
      "count": 65532,
      "max": [
        0.9983090162277222,
        0.9999296069145203,
        0.9999091625213623,
        1.0
      ],
      "min": [
        -0.9999940395355225,
        -0.9998123645782471,
        -0.9999367594718933,
        -1.0
      ],
      "type": "VEC4"
    },
    {
      "bufferView": 1,
      "byteOffset": 2621280,
      "componentType": 5126,
      "count": 65532,
      "max": [
        0.9980130195617676,
        0.770313024520874
      ],
      "min": [
        0.00203699991106987,
        0.002469999948516488
      ],
      "type": "VEC2"
    },
    {
      "bufferView": 0,
      "byteOffset": 1310640,
      "componentType": 5125,
      "count": 65532,
      "type": "SCALAR"
    },
    {
      "bufferView": 2,
      "byteOffset": 9436608,
      "componentType": 5126,
      "count": 56796,
      "max": [
        0.9228289723396301,
        0.9930660128593445,
        0.9043179750442505
      ],
      "min": [
        -0.9106690287590027,
        -1.1422079801559448,
        -0.9153710007667542
      ],
      "type": "VEC3"
    },
    {
      "bufferView": 2,
      "byteOffset": 10118160,
      "componentType": 5126,
      "count": 56796,
      "max": [
        0.9999695420265198,
        0.9999970197677612,
        0.9999463558197021
      ],
      "min": [
        -0.99991375207901,
        -0.9995066523551941,
        -0.9998354911804199
      ],
      "type": "VEC3"
    },
    {
      "bufferView": 3,
      "byteOffset": 6291072,
      "componentType": 5126,
      "count": 56796,
      "max": [
        0.9998652338981628,
        0.999983012676239,
        0.9993890523910522,
        1.0
      ],
      "min": [
        -0.9999855160713196,
        -0.9999656081199646,
        -0.9996230006217957,
        -1.0
      ],
      "type": "VEC4"
    },
    {
      "bufferView": 1,
      "byteOffset": 3145536,
      "componentType": 5126,
      "count": 56796,
      "max": [
        0.9979829788208008,
        0.760903000831604
      ],
      "min": [
        0.0025430000387132168,
        0.00279000005684793
      ],
      "type": "VEC2"
    },
    {
      "bufferView": 0,
      "byteOffset": 1572768,
      "componentType": 5125,
      "count": 56796,
      "type": "SCALAR"
    }
  ],
  "asset": {
    "extras": {
      "author": "Andy Woodhead (https://sketchfab.com/Andywoodhead)",
      "license": "CC-BY-NC-4.0 (http://creativecommons.org/licenses/by-nc/4.0/)",
      "source": "https://sketchfab.com/3d-models/hunt-cup-castor-ware-reconstruction-79f54b6e5f1a461a843df94a5d6e27c9",
      "title": "Hunt cup - Castor Ware - reconstruction"
    },
    "generator": "Sketchfab-13.74.0",
    "version": "2.0"
  },
  "bufferViews": [
    {
      "buffer": 0,
      "byteLength": 1799952,
      "name": "floatBufferViews",
      "target": 34963
    },
    {
      "buffer": 0,
      "byteLength": 3599904,
      "byteOffset": 1799952,
      "byteStride": 8,
      "name": "floatBufferViews",
      "target": 34962
    },
    {
      "buffer": 0,
      "byteLength": 10799712,
      "byteOffset": 5399856,
      "byteStride": 12,
      "name": "floatBufferViews",
      "target": 34962
    },
    {
      "buffer": 0,
      "byteLength": 7199808,
      "byteOffset": 16199568,
      "byteStride": 16,
      "name": "floatBufferViews",
      "target": 34962
    }
  ],
  "buffers": [
    {
      "byteLength": 23399376,
      "uri": "scene.bin"
    }
  ],
  "images": [
    {
      "uri": "textures/Cup_03_03_baseColor.jpeg"
    },
    {
      "uri": "textures/Cup_03_03_metallicRoughness.png"
    },
    {
      "uri": "textures/Cup_03_03_normal.png"
    }
  ],
  "materials": [
    {
      "doubleSided": true,
      "name": "Cup_03_03",
      "normalTexture": {
        "index": 2
      },
      "occlusionTexture": {
        "index": 1
      },
      "pbrMetallicRoughness": {
        "baseColorTexture": {
          "index": 0
        },
        "metallicRoughnessTexture": {
          "index": 1
        }
      }
    }
  ],
  "meshes": [
    {
      "name": "defaultMaterial",
      "primitives": [
        {
          "attributes": {
            "NORMAL": 1,
            "POSITION": 0,
            "TANGENT": 2,
            "TEXCOORD_0": 3
          },
          "indices": 4,
          "material": 0,
          "mode": 4
        }
      ]
    },
    {
      "name": "defaultMaterial",
      "primitives": [
        {
          "attributes": {
            "NORMAL": 6,
            "POSITION": 5,
            "TANGENT": 7,
            "TEXCOORD_0": 8
          },
          "indices": 9,
          "material": 0,
          "mode": 4
        }
      ]
    },
    {
      "name": "defaultMaterial",
      "primitives": [
        {
          "attributes": {
            "NORMAL": 11,
            "POSITION": 10,
            "TANGENT": 12,
            "TEXCOORD_0": 13
          },
          "indices": 14,
          "material": 0,
          "mode": 4
        }
      ]
    },
    {
      "name": "defaultMaterial",
      "primitives": [
        {
          "attributes": {
            "NORMAL": 16,
            "POSITION": 15,
            "TANGENT": 17,
            "TEXCOORD_0": 18
          },
          "indices": 19,
          "material": 0,
          "mode": 4
        }
      ]
    },
    {
      "name": "defaultMaterial",
      "primitives": [
        {
          "attributes": {
            "NORMAL": 21,
            "POSITION": 20,
            "TANGENT": 22,
            "TEXCOORD_0": 23
          },
          "indices": 24,
          "material": 0,
          "mode": 4
        }
      ]
    },
    {
      "name": "defaultMaterial",
      "primitives": [
        {
          "attributes": {
            "NORMAL": 26,
            "POSITION": 25,
            "TANGENT": 27,
            "TEXCOORD_0": 28
          },
          "indices": 29,
          "material": 0,
          "mode": 4
        }
      ]
    },
    {
      "name": "defaultMaterial",
      "primitives": [
        {
          "attributes": {
            "NORMAL": 31,
            "POSITION": 30,
            "TANGENT": 32,
            "TEXCOORD_0": 33
          },
          "indices": 34,
          "material": 0,
          "mode": 4
        }
      ]
    }
  ],
  "nodes": [
    {
      "children": [
        1
      ],
      "matrix": [
        1.0,
        0.0,
        0.0,
        0.0,
        0.0,
        2.220446049250313e-16,
        -1.0,
        0.0,
        0.0,
        1.0,
        2.220446049250313e-16,
        0.0,
        0.0,
        0.0,
        0.0,
        1.0
      ],
      "name": "Sketchfab_model"
    },
    {
      "children": [
        2
      ],
      "matrix": [
        1.0,
        0.0,
        0.0,
        0.0,
        0.0,
        -4.371139006309477e-08,
        0.999999999999999,
        0.0,
        0.0,
        -0.999999999999999,
        -4.371139006309477e-08,
        0.0,
        0.0,
        0.0,
        0.0,
        1.0
      ],
      "name": "Collada visual scene group"
    },
    {
      "children": [
        3,
        4,
        5,
        6,
        7,
        8,
        9
      ],
      "name": "Cup"
    },
    {
      "mesh": 0,
      "name": "defaultMaterial"
    },
    {
      "mesh": 1,
      "name": "defaultMaterial"
    },
    {
      "mesh": 2,
      "name": "defaultMaterial"
    },
    {
      "mesh": 3,
      "name": "defaultMaterial"
    },
    {
      "mesh": 4,
      "name": "defaultMaterial"
    },
    {
      "mesh": 5,
      "name": "defaultMaterial"
    },
    {
      "mesh": 6,
      "name": "defaultMaterial"
    }
  ],
  "samplers": [
    {
      "magFilter": 9729,
      "minFilter": 9987,
      "wrapS": 10497,
      "wrapT": 10497
    }
  ],
  "scene": 0,
  "scenes": [
    {
      "name": "Sketchfab_Scene",
      "nodes": [
        0
      ]
    }
  ],
  "textures": [
    {
      "sampler": 0,
      "source": 0
    },
    {
      "sampler": 0,
      "source": 1
    },
    {
      "sampler": 0,
      "source": 2
    }
  ]
}
